<?xml version="1.0" encoding="utf-8"?>
<!-- Generator: Adobe Illustrator 19.0.0, SVG Export Plug-In . SVG Version: 6.00 Build 0)  -->
<svg version="1.1" id="Layer_1" xmlns="http://www.w3.org/2000/svg" xmlns:xlink="http://www.w3.org/1999/xlink" x="0px" y="0px"
	 viewBox="0 0 200 200" style="enable-background:new 0 0 200 200;" xml:space="preserve">
<style type="text/css">
	.st0{fill:#FFFFFF;}
</style>
<g id="XMLID_1_">
	<path id="XMLID_7_" class="st0" d="M168.4,109H31.1c-5,0-9-4-9-9s4-9,9-9h137.3c5,0,9,4,9,9S173.4,109,168.4,109z"/>
</g>
<g id="XMLID_3_">
	<path id="XMLID_6_" class="st0" d="M168.4,109c-2.3,0-4.6-0.9-6.4-2.6l-50.6-50.6c-3.5-3.5-3.5-9.2,0-12.8c3.5-3.5,9.2-3.5,12.8,0
		l50.6,50.6c3.5,3.5,3.5,9.2,0,12.8C173,108.1,170.7,109,168.4,109z"/>
</g>
<g id="XMLID_4_">
	<path id="XMLID_5_" class="st0" d="M117.8,159.6c-2.3,0-4.6-0.9-6.4-2.6c-3.5-3.5-3.5-9.2,0-12.8L162,93.6c3.5-3.5,9.2-3.5,12.8,0
		c3.5,3.5,3.5,9.2,0,12.8L124.2,157C122.4,158.7,120.1,159.6,117.8,159.6z"/>
</g>
</svg>
