<?xml version="1.0" encoding="utf-8"?>
<!-- Generator: Adobe Illustrator 19.0.0, SVG Export Plug-In . SVG Version: 6.00 Build 0)  -->
<svg version="1.1" id="Layer_1" xmlns="http://www.w3.org/2000/svg" xmlns:xlink="http://www.w3.org/1999/xlink" x="0px" y="0px"
	 viewBox="118 -50 335 200" style="enable-background:new 118 -50 335 200;" xml:space="preserve">
<style type="text/css">
	.st0{fill:#F8F8F9;}
</style>
<g id="XMLID_6_">
	<g id="XMLID_13_">
		<path id="XMLID_4_" class="st0" d="M212.5,110.8c-2.3,0-4.5-1.3-5.5-3.4L146.7-9c-0.8-1.5-0.9-3.3-0.3-4.9
			c0.5-1.6,1.7-2.9,3.3-3.6c14.4-6.5,30-10.5,46.3-12.1c13-1.1,26.5-0.7,40.2,1.4c12.1,1.8,22.1,4.6,28.3,6.6
			c6.8,2.2,10.9,4.1,11.1,4.1c1.6,0.7,2.8,2,3.3,3.6c0.5,1.6,0.4,3.4-0.3,4.9l-15.1,29.1c-1.6,3-5.4,4.2-8.4,2.7s-4.2-5.4-2.7-8.4
			l11.9-23c-1-0.3-2.2-0.8-3.6-1.2c-5.8-1.9-15-4.5-26.3-6.2c-12.6-1.9-25.1-2.3-37.1-1.2c-12.7,1.1-24.9,4-36.3,8.5l51.6,99.8
			L237,43.5c1.6-3,5.4-4.2,8.4-2.7s4.2,5.4,2.7,8.4L218,107.4C217,109.5,214.8,110.8,212.5,110.8z"/>
	</g>
	<g id="XMLID_11_">
		<circle id="XMLID_3_" class="st0" cx="195.4" cy="8.3" r="10.8"/>
	</g>
	<g id="XMLID_9_">
		<circle id="XMLID_2_" class="st0" cx="228.4" cy="17.1" r="7.9"/>
	</g>
	<g id="XMLID_7_">
		<circle id="XMLID_1_" class="st0" cx="212.5" cy="46.3" r="8.4"/>
	</g>
</g>
<g id="XMLID_8_">
	<g id="XMLID_18_">
		<path id="XMLID_19_" class="st0" d="M360.5-13.3c2.3,0,4.5,1.3,5.5,3.4l60.3,116.5c0.8,1.5,0.9,3.3,0.3,4.9
			c-0.5,1.6-1.7,2.9-3.3,3.6c-14.4,6.6-30,10.6-46.3,12.1c-13,1.2-26.5,0.7-40.2-1.3c-12.1-1.8-22.1-4.6-28.3-6.6
			c-6.8-2.2-10.9-4.1-11.1-4.1c-1.6-0.7-2.8-2-3.3-3.6c-0.5-1.6-0.4-3.4,0.3-4.9l15.1-29.1c1.6-3,5.4-4.2,8.4-2.7
			c3,1.6,4.2,5.4,2.7,8.4l-11.9,23c1,0.3,2.2,0.8,3.6,1.2c5.8,1.9,15,4.5,26.3,6.2c12.6,1.9,25.1,2.3,37.1,1.2
			c12.7-1.1,24.9-4,36.3-8.5l-51.7-100L335.9,54c-1.6,3-5.4,4.2-8.4,2.7c-3-1.6-4.2-5.4-2.7-8.4L355-9.9
			C356-12.1,358.2-13.3,360.5-13.3z"/>
	</g>
	<g id="XMLID_16_">
		<circle id="XMLID_17_" class="st0" cx="377.7" cy="89.2" r="10.8"/>
	</g>
	<g id="XMLID_14_">
		<circle id="XMLID_15_" class="st0" cx="344.6" cy="80.3" r="7.9"/>
	</g>
	<g id="XMLID_10_">
		<circle id="XMLID_12_" class="st0" cx="360.5" cy="51.1" r="8.4"/>
	</g>
</g>
</svg>
