<?xml version="1.0" encoding="utf-8"?>
<!-- Generator: Adobe Illustrator 19.0.0, SVG Export Plug-In . SVG Version: 6.00 Build 0)  -->
<svg version="1.1" id="Layer_1" xmlns="http://www.w3.org/2000/svg" xmlns:xlink="http://www.w3.org/1999/xlink" x="0px" y="0px"
	 viewBox="0 0 200 200" style="enable-background:new 0 0 200 200;" xml:space="preserve">
<style type="text/css">
	.st0{fill:#FFFFFF;}
</style>
<g id="XMLID_3_">
	<path id="XMLID_6_" class="st0" d="M108.9,109c-2.3,0-4.6-0.9-6.4-2.6L51.9,55.8c-3.5-3.5-3.5-9.2,0-12.8c3.5-3.5,9.2-3.5,12.8,0
		l50.6,50.6c3.5,3.5,3.5,9.2,0,12.8C113.5,108.1,111.2,109,108.9,109z"/>
</g>
<g id="XMLID_4_">
	<path id="XMLID_5_" class="st0" d="M58.3,159.6c-2.3,0-4.6-0.9-6.4-2.6c-3.5-3.5-3.5-9.2,0-12.8l50.6-50.6c3.5-3.5,9.2-3.5,12.8,0
		c3.5,3.5,3.5,9.2,0,12.8L64.7,157C62.9,158.7,60.6,159.6,58.3,159.6z"/>
</g>
<g id="XMLID_9_">
	<path id="XMLID_10_" class="st0" d="M108.7,91c2.3,0,4.6,0.9,6.4,2.6l50.6,50.6c3.5,3.5,3.5,9.2,0,12.8c-3.5,3.5-9.2,3.5-12.8,0
		l-50.6-50.6c-3.5-3.5-3.5-9.2,0-12.8C104.1,91.9,106.4,91,108.7,91z"/>
</g>
<g id="XMLID_2_">
	<path id="XMLID_8_" class="st0" d="M159.3,40.4c2.3,0,4.6,0.9,6.4,2.6c3.5,3.5,3.5,9.2,0,12.8l-50.6,50.6c-3.5,3.5-9.2,3.5-12.8,0
		c-3.5-3.5-3.5-9.2,0-12.8L152.9,43C154.7,41.3,157,40.4,159.3,40.4z"/>
</g>
</svg>
