<?xml version="1.0" encoding="utf-8"?>
<!-- Generator: Adobe Illustrator 19.0.0, SVG Export Plug-In . SVG Version: 6.00 Build 0)  -->
<svg version="1.1" id="Layer_1" xmlns="http://www.w3.org/2000/svg" xmlns:xlink="http://www.w3.org/1999/xlink" x="0px" y="0px"
	 viewBox="0 0 100 100" style="enable-background:new 0 0 100 100;" xml:space="preserve">
<style type="text/css">
	.st0{fill:#FBDE52;}
</style>
<path id="XMLID_23_" class="st0" d="M87.9,75.3c0,0.1,0,0.2,0,0.3c-11.6,0-23.3,0-34.9,0c-0.1,0-0.2-0.1-0.3-0.1
	c-9.5,0-19,0-28.5-0.1c-2.7,0-5.4,0-8.1,0c-0.6,0-1.3,0-1.9,0c-0.2,0-0.3-0.1-0.3-0.3c0-0.5-0.1-1-0.1-1.4c-0.1-1.2-0.1-2.5-0.2-3.8
	c0-0.6-0.1-1.2-0.1-1.8c0-0.4,0-0.8-0.1-1.2c-0.1-0.3,0-0.4,0.3-0.5c1.9-0.6,3.5-1.8,4.5-3.5c0.6-1.2,0.9-2.5,0.6-3.8
	C18.5,58,17.9,57,17,56.1c-1.1-1-2.4-1.8-3.9-2c-0.4-0.1-0.5-0.1-0.5-0.5c0-0.3,0-0.5,0-0.8c-0.1-1.2-0.1-2.5-0.3-3.8
	c0-0.7,0-1.4,0-2.1c-0.1-1-0.1-1.9-0.1-2.9c0-0.5,0-0.5,0.5-0.6h0.1c0.8-0.1,1.7-0.1,2.5-0.2c1-0.1,2-0.1,3.1-0.2
	c0.3,0,0.6-0.1,1-0.1c1-0.1,2.1-0.2,3.2-0.3c0.6-0.1,1.2-0.1,1.8-0.1c1-0.1,2.1-0.1,3.2-0.2c0.5-0.1,1.1-0.1,1.6-0.1
	c0.8-0.1,1.7-0.1,2.5-0.2c0.9-0.1,1.9-0.1,2.8-0.2c1.1-0.1,2.2-0.2,3.3-0.3c0.8-0.1,1.6-0.1,2.5-0.2c0.6-0.1,1.3-0.1,1.9-0.2
	c1.2-0.1,2.3-0.1,3.4-0.2c0.3,0,0.6-0.1,1-0.1c0.5-0.1,1.1-0.1,1.6-0.1c1-0.1,1.9-0.1,2.9-0.2c1.2-0.1,2.3-0.2,3.6-0.3
	c0.6-0.1,1.1-0.1,1.7-0.1c0.6-0.1,1.2-0.1,1.8-0.1c0.7-0.1,1.4-0.1,2.1-0.1c1.1-0.1,2.2-0.2,3.2-0.3c0.8-0.1,1.6-0.1,2.5-0.2
	c0.8-0.1,1.6-0.1,2.4-0.2c0.6-0.1,1.1-0.1,1.7-0.1c0.8-0.1,1.6-0.1,2.4-0.2c0.9-0.1,1.9-0.1,2.9-0.2c1.2-0.1,2.5-0.2,3.7-0.3
	c0.5-0.1,1-0.1,1.6-0.1c0.6-0.1,1.2-0.1,1.8-0.1c0.7-0.1,1.4-0.1,2.1-0.1c0.6-0.1,1.3-0.1,1.9-0.1c0.2,0,0.3,0.1,0.3,0.3
	c0,0.8,0.1,1.6,0.1,2.3c0.1,1,0.1,2,0.1,3.1c0,0.8,0.1,1.6,0.1,2.3c0,0.5,0,1,0.1,1.6c0.1,1.2,0.1,2.3,0.2,3.4c0.1,1,0.1,2,0.1,3
	c0.1,1,0.1,2,0.1,3.1c0.1,0.9,0.1,1.8,0.1,2.7c0.1,1.1,0.1,2.2,0.1,3.4c0,0.7,0.1,1.4,0.1,2.2c0,0.6,0.1,1.2,0.1,1.9
	c0.1,1,0.1,2.1,0.1,3.1c0.1,1.3,0.1,2.6,0.1,3.8C87.8,74.5,87.9,74.9,87.9,75.3z M48.1,64.3c0,0.2,0,0.5,0.1,0.8
	c0.2,1.4,0.8,2.7,1.8,3.7c1.4,1.4,3.1,2.1,4.9,2.1c0.6,0,1.3-0.1,1.9-0.3c1.4-0.4,2.5-1.2,3.3-2.2c0.4-0.5,0.8-1.1,1-1.7
	c0.5-1.1,0.6-2.2,0.4-3.4c-0.2-1.3-0.8-2.5-1.7-3.5c-0.5-0.6-1.2-1.1-1.9-1.4c-1.7-0.9-3.5-1-5.3-0.5c-1.2,0.4-2.3,1.1-3.1,2.1
	C48.7,61.2,48.2,62.6,48.1,64.3z M32.3,51.9c0.1-2.8-2.3-5.2-5.3-5.2c-2.7,0-5.5,2.3-5.3,5.7c0.1,1.2,0.6,2.3,1.5,3.2
	c1.2,1.2,2.7,1.8,4.5,1.6C29.9,56.8,32.4,54.8,32.3,51.9z M84.6,66.3c-0.1-1.4-0.5-2.5-1.6-3.4c-0.9-0.8-1.9-1.2-3.1-1.2
	c-0.9,0-1.7,0.3-2.5,0.8c-0.6,0.5-1.2,1-1.5,1.6c-0.5,1-0.7,2.1-0.4,3.2c0.4,1.3,1.2,2.3,2.3,2.9c1.4,0.6,2.7,0.7,4.1,0.1
	C83.7,69.4,84.5,68,84.6,66.3z M71,54.9c0-2.1-1.8-4-4-3.9c-2.2,0-4,1.8-4,3.9c0,2.2,1.8,4,4,4C69.2,58.9,71,57.1,71,54.9z"/>
<path id="XMLID_20_" class="st0" d="M12.3,41.1c0.9-0.3,1.7-0.5,2.6-0.8c1.5-0.5,2.9-0.9,4.4-1.4c1.1-0.3,2.2-0.7,3.4-1.1
	c0.7-0.2,1.5-0.5,2.1-0.7c1.2-0.4,2.4-0.8,3.6-1.1c1.1-0.3,2.2-0.7,3.3-1.1c1.9-0.6,3.6-1.2,5.5-1.7c1.7-0.5,3.4-1.1,5.1-1.6
	c2.1-0.7,4.2-1.3,6.4-2c1.7-0.5,3.4-1.1,5.1-1.6c1.7-0.5,3.3-1.1,5-1.5c1.2-0.4,2.4-0.7,3.6-1.1c1.1-0.3,2.2-0.7,3.4-1.1
	c1.5-0.5,3-0.9,4.5-1.5c0.5-0.2,1.1-0.3,1.7-0.5c0.1,0,0.1-0.1,0.1-0.1c0.1,0,0.2,0,0.3,0c0.5,0.5,0.9,0.9,1.3,1.3
	c1.1,1.1,2.2,2.1,3.2,3.2c0.5,0.5,1,0.9,1.5,1.5c1.3,1.2,2.5,2.4,3.8,3.6c0.1,0.1,0.3,0.3,0.4,0.4c0.8,0.8,1.6,1.5,2.4,2.3
	c0.3,0.3,0.6,0.6,0.9,0.9c0.1,0.1,0.1,0.2,0.3,0.3c-0.1,0-0.3,0.1-0.3,0.1c-0.1,0-0.3,0-0.5,0c-0.3,0-0.7,0.1-1,0.1
	c-0.7,0.1-1.3,0.1-2,0.1c-1,0.1-2,0.1-3,0.2c-0.3,0-0.7,0.1-1.1,0.1c-0.5,0.1-1,0.1-1.5,0.1c-0.7,0.1-1.5,0.1-2.2,0.1
	C73.3,36.8,72.1,37,71,37c-0.6,0.1-1.2,0.1-1.8,0.1c-0.9,0.1-1.7,0.1-2.5,0.2c-0.7,0.1-1.3,0.1-2,0.1c-1.1,0.1-2.2,0.2-3.3,0.3
	c-0.9,0.1-1.7,0.1-2.6,0.2c-0.8,0.1-1.6,0.1-2.3,0.2c-0.6,0.1-1.1,0.1-1.7,0.1c-0.8,0.1-1.7,0.1-2.4,0.2c-0.6,0.1-1.2,0.1-1.8,0.1
	c-0.8,0.1-1.6,0.1-2.4,0.2c-0.6,0.1-1.1,0.1-1.7,0.1c-0.8,0.1-1.7,0.1-2.4,0.2c-0.6,0.1-1.2,0.1-1.9,0.1c-0.8,0.1-1.5,0.1-2.3,0.2
	c-0.6,0.1-1.2,0.1-1.8,0.1c-0.8,0.1-1.7,0.1-2.4,0.2c-0.6,0.1-1.3,0.1-1.9,0.1c-0.8,0.1-1.5,0.1-2.3,0.2c-0.6,0.1-1.3,0.1-1.9,0.1
	c-0.8,0.1-1.6,0.1-2.4,0.2c-0.6,0.1-1.3,0.1-1.9,0.1c-0.7,0.1-1.5,0.1-2.2,0.2c-0.6,0.1-1.2,0.1-1.8,0.1c-0.8,0.1-1.7,0.1-2.4,0.2
	c-0.6,0.1-1.2,0.1-1.8,0.1c-1.1,0.1-2.1,0.1-3.2,0.3c-0.5,0.1-1.1,0.1-1.5,0.1C12.3,41.2,12.3,41.2,12.3,41.1z"/>
</svg>
