<?xml version="1.0" encoding="utf-8"?>
<!-- Generator: Adobe Illustrator 19.0.0, SVG Export Plug-In . SVG Version: 6.00 Build 0)  -->
<svg version="1.1" id="Layer_1" xmlns="http://www.w3.org/2000/svg" xmlns:xlink="http://www.w3.org/1999/xlink" x="0px" y="0px"
	 viewBox="0 0 100 100" style="enable-background:new 0 0 100 100;" xml:space="preserve">
<style type="text/css">
	.st0{fill:#F46564;}
</style>
<g id="XMLID_32_">
	<path id="XMLID_68_" class="st0" d="M86,18.8H27.2c-2,0-3.5,1.6-3.5,3.5v4.5h-8.2c-1.9,0-3.5,1.6-3.5,3.5V66c0,7.2,5.7,13,12.6,13
		h52.3c7,0,12.6-5.9,12.6-13V54V30.4v-8C89.5,20.4,88,18.8,86,18.8z M86.8,54v12c0,5.7-4.4,10.3-9.8,10.3H24.7
		c-5.4,0-9.8-4.6-9.8-10.3V30.4c0-0.4,0.3-0.8,0.7-0.8h8.2v35.8c0,0.8,0.6,1.4,1.4,1.4s1.4-0.6,1.4-1.4V22.4c0-0.4,0.3-0.8,0.8-0.8
		H86c0.4,0,0.8,0.3,0.8,0.8v8V54z"/>
	<path id="XMLID_71_" class="st0" d="M37.9,55.1h15c2.3,0,4.2-1.9,4.2-4.2v-15c0-2.3-1.9-4.2-4.2-4.2h-15c-2.3,0-4.2,1.9-4.2,4.2v15
		C33.7,53.2,35.6,55.1,37.9,55.1z M36.4,35.9c0-0.8,0.7-1.5,1.5-1.5h15c0.8,0,1.5,0.7,1.5,1.5v15c0,0.8-0.7,1.5-1.5,1.5h-15
		c-0.8,0-1.5-0.7-1.5-1.5V35.9z"/>
	<path id="XMLID_72_" class="st0" d="M35,28.4h10.3c0.8,0,1.4-0.6,1.4-1.4s-0.6-1.4-1.4-1.4H35c-0.8,0-1.4,0.6-1.4,1.4
		S34.3,28.4,35,28.4z"/>
	<path id="XMLID_73_" class="st0" d="M77.8,37.5H63.6c-0.8,0-1.4,0.6-1.4,1.4s0.6,1.4,1.4,1.4h14.2c0.8,0,1.4-0.6,1.4-1.4
		S78.6,37.5,77.8,37.5z"/>
	<path id="XMLID_74_" class="st0" d="M77.8,45H63.6c-0.8,0-1.4,0.6-1.4,1.4s0.6,1.4,1.4,1.4h14.2c0.8,0,1.4-0.6,1.4-1.4
		S78.6,45,77.8,45z"/>
	<path id="XMLID_75_" class="st0" d="M77.8,52.5H63.6c-0.8,0-1.4,0.6-1.4,1.4s0.6,1.4,1.4,1.4h14.2c0.8,0,1.4-0.6,1.4-1.4
		S78.6,52.5,77.8,52.5z"/>
	<path id="XMLID_76_" class="st0" d="M77.8,60H35c-0.8,0-1.4,0.6-1.4,1.4s0.6,1.4,1.4,1.4h42.8c0.8,0,1.4-0.6,1.4-1.4
		S78.6,60,77.8,60z"/>
	<path id="XMLID_77_" class="st0" d="M77.8,67.5H35c-0.8,0-1.4,0.6-1.4,1.4s0.6,1.4,1.4,1.4h42.8c0.8,0,1.4-0.6,1.4-1.4
		S78.6,67.5,77.8,67.5z"/>
	<path id="XMLID_78_" class="st0" d="M63.6,28.4h4c0.8,0,1.4-0.6,1.4-1.4s-0.6-1.4-1.4-1.4h-4c-0.8,0-1.4,0.6-1.4,1.4
		S62.9,28.4,63.6,28.4z"/>
	<path id="XMLID_79_" class="st0" d="M77.8,25.6h-4c-0.8,0-1.4,0.6-1.4,1.4s0.6,1.4,1.4,1.4h4c0.8,0,1.4-0.6,1.4-1.4
		S78.6,25.6,77.8,25.6z"/>
</g>
</svg>
