<?xml version="1.0" encoding="utf-8"?>
<!-- Generator: Adobe Illustrator 19.0.0, SVG Export Plug-In . SVG Version: 6.00 Build 0)  -->
<svg version="1.1" id="Layer_1" xmlns="http://www.w3.org/2000/svg" xmlns:xlink="http://www.w3.org/1999/xlink" x="0px" y="0px"
	 viewBox="0 0 144.8 100" style="enable-background:new 0 0 144.8 100;" xml:space="preserve">
<style type="text/css">
	.st0{fill:#FFFFFF;}
	.st1{fill:#E5EBE7;}
	.st2{fill:#404041;}
</style>
<path id="XMLID_6_" class="st0" d="M25,65.5"/>
<polygon id="XMLID_121_" class="st1" points="50.4,31.5 50.7,33.6 50.4,37.6 53.6,40.8 54.4,43.7 58.5,45.5 57.7,48.2 56.3,49.3 
	56.5,51.4 53.2,57.9 48.9,65.7 51.1,68.2 53.2,68.8 54,70.1 52.3,71 49.5,71 45.3,68.3 40.7,71 34.5,71.1 36.3,75.6 38.5,78.2 
	36.1,79.3 32.9,77.7 30.8,75 29.7,73.1 27.8,71.9 25.3,72.5 24,74.5 23.3,77 21.7,76.1 21.4,72.5 21.8,71 16.6,72.5 15,76.4 
	13.8,78.6 12.1,77.4 13,73.7 13.6,68.8 13.3,65.2 14.2,60.8 17.9,58.6 30.1,56.9 33.2,44.5 40,35.5 45.3,33.7 48.1,32.8 "/>
<path id="XMLID_73_" class="st1" d="M118,17.1H79.2c-8.1,0-14.8,6.7-14.8,14.8v0c0,8.1,6.7,14.8,14.8,14.8H118
	c8.1,0,14.8-6.7,14.8-14.8v0C132.9,23.8,126.2,17.1,118,17.1z"/>
<path id="XMLID_32_" class="st2" d="M9.2,49.2l3.4-3.1l4.4-1.8l3.7-2.6l-0.5,1.5l-0.5,2.2l-1.6,1.4l-1.5,1L14.7,49v1.6l1.4,0.8
	l2.3,2.1l-1.4,1.7l0,0.3l3-1.9l4.2-1.9l1-1.4l0.8-5.1l2.4-5.2l2.5-3l0-1.8l2.3-6.8l1.1,0.6l2,3.4l4.7,0.1l2.8,0.6l2.2,0l2.4-1.8
	l2.1-1.3l-2.1,4.9l1.9,1.9c0,0,1.3,2.4,1.5,4.7c0,0-4.6-4.7-8.3-4.7c-3.7,0-3.5,2.6-3.5,4c0,1.4,2.2,3.7,2.2,3.7s-7.9-0.5-7.9,6.5
	c0,7,9.6,4,9.6,4s-1.4,1.8-3.2,2.6c-1.8,0.9-3.1-0.5-3.5,2.2c-0.4,2.7-1.8,4.2-2.9,5.5c-1.1,1.2-2.4,2-3.3,0c-1-2-1.1-3.2-2-2.5
	c-1,0.8-1.1,1.5-2.2,2s-2.4,0-3,0.9C22.7,66.4,21.1,68,18,68s-1.8-6.6-1.8-6.6s-0.7-1.1-1.4,0c-0.7,1.1-0.5-1.7-0.5-1.7l0.7-1.2
	l-2-0.3l-2.6-1.2l-1.5-2.1l-0.3-2.3L9.2,49.2z"/>
<g id="XMLID_26_">
	
		<ellipse id="XMLID_29_" transform="matrix(-7.908072e-02 -0.9969 0.9969 -7.908072e-02 5.773 88.0797)" class="st2" cx="43.6" cy="41.4" rx="2" ry="1.8"/>
	<path id="XMLID_36_" class="st2" d="M9.6,57.2c1.3,1.1,2.9,1.6,4.2,1.7c-0.4,1-0.7,2-0.9,3c-0.1,0.6-0.2,1.2-0.3,1.8
		c0,0.2,0,0.3,0,0.5l0,0.1l0,0.1l0,0.2c0,0.3,0,0.6,0,0.9c0.1,1.2,0.2,2.3,0.3,3.4c0.1,1.1,0.1,2.2-0.2,3.2l-0.1,0.4L12.5,73
		l-0.3,0.8c-0.2,0.5-0.4,1.1-0.5,1.7c-0.1,0.6-0.3,1.2-0.3,1.9c0,0.4,0.1,0.8,0.4,1.2c0.1,0.2,0.3,0.4,0.6,0.5
		c0.1,0.1,0.2,0.1,0.3,0.1l0.1,0l0,0l0.1,0l0.1,0c0.1,0,0.1,0,0.2,0c0.1,0,0.2,0,0.3,0c0.2,0,0.4,0,0.6-0.1c0.4-0.1,0.9-0.4,1.1-0.8
		c0.2-0.4,0.3-0.7,0.4-1.1c0.1-0.3,0.1-0.7,0.1-1c0-0.9,0.5-1.8,1.2-2.5c0.4-0.4,0.8-0.7,1.2-0.9c0.1-0.1,0.2-0.1,0.3-0.2
		c0.1-0.1,0.3-0.1,0.4-0.2c0,0,0.1,0,0.1,0c0,0,0.1,0,0.1,0c0,0,0,0,0.1,0c0,0,0.1,0,0.2-0.1c0,0,0.1,0,0.1,0c0,0,0.1,0,0.1,0
		c0.4-0.1,0.8-0.3,1.2-0.4c-0.3,0.7-0.5,1.6-0.2,2.7c0.5,2.2,0.7,2.6,1.9,3c0.1,0,0.3,0.1,0.4,0.1c0.4,0,0.7-0.1,1-0.4
		c0.5-0.5,0.7-1.3,0.5-2.2c-0.1-0.5,1.6-2.1,2.4-2.4c0.2,0.1,0.4,0.1,0.7,0.1c0.4,0.1,0.9,0.1,1.3,0c0,0,0,0,0,0
		c0.1,0.2,0.2,0.4,0.3,0.6c0.1,0.2,0.2,0.3,0.2,0.4c0.1,0.1,0.1,0.1,0.1,0.1c0,0,0.1,0.1,0.1,0.1c0.2,0.4,0.4,0.8,0.7,1.2
		c0.6,1,1.2,1.9,2.1,2.7c0.2,0.2,0.4,0.4,0.7,0.6c0.2,0.2,0.5,0.4,0.7,0.5c0.3,0.2,0.5,0.3,0.8,0.4c0.1,0.1,0.3,0.1,0.5,0.1
		c0.2,0,0.3,0.1,0.5,0.1c0.2,0,0.3,0,0.5,0c0.2,0,0.3,0,0.5,0c0.3,0,0.6-0.1,1-0.2c0.3-0.1,0.6-0.2,0.8-0.4c0.3-0.1,0.5-0.4,0.7-0.5
		c0.3-0.2,0.4-0.6,0.2-0.9c0,0,0-0.1-0.1-0.1l0,0c-0.1-0.1-0.2-0.2-0.3-0.3c-0.1-0.1-0.2-0.2-0.3-0.4c-0.2-0.2-0.5-0.5-0.7-0.8
		c-0.2-0.3-0.4-0.5-0.6-0.8c-0.2-0.3-0.4-0.5-0.6-0.8c-0.1-0.1-0.2-0.3-0.3-0.4C36.1,74,36,73.9,36,73.8l-0.2-0.4
		c-0.1-0.1-0.1-0.3-0.2-0.4c-0.1-0.1-0.1-0.3-0.2-0.4c0,0,0,0,0-0.1l0,0c0,0,0-0.1,0-0.2c0-0.1,0-0.2,0-0.3c0.2,0,0.4,0,0.7,0.1
		c0.5,0,1.1,0.1,1.6,0.1c0.5,0,1.1,0,1.6-0.1c0.3,0,0.5,0,0.8-0.1c0.3,0,0.5-0.1,0.8-0.2c0.1,0,0.3-0.1,0.4-0.1
		c0.1,0,0.3-0.1,0.4-0.1c0.1-0.1,0.3-0.1,0.4-0.2l0.3-0.2l1.4-0.7l2.3-1.1c0.1,0.1,0.2,0.3,0.4,0.4c0.3,0.3,0.5,0.5,0.8,0.7
		c0.3,0.2,0.6,0.4,0.9,0.6c0.3,0.2,0.7,0.4,1,0.5c0.2,0.1,0.4,0.1,0.6,0.2c0.1,0,0.2,0,0.3,0c0.1,0,0.2,0,0.3,0l1,0
		c0.3,0,0.7,0,1.1,0c0.4,0,0.8-0.1,1.2-0.2c0.2-0.1,0.5-0.2,0.7-0.5c0.2-0.3,0.3-0.6,0.3-0.9c0-0.2,0-0.2,0-0.3c0-0.1,0-0.3-0.1-0.4
		c-0.1-0.2-0.2-0.5-0.4-0.7c-0.4-0.4-0.9-0.6-1.3-0.7c-0.2,0-0.4-0.1-0.6-0.1l-0.1,0l0,0l0,0l-0.1,0c0,0,0,0,0,0c0,0,0,0,0,0
		c0,0-0.1,0-0.1,0c-0.1,0-0.1-0.1-0.2-0.1c-0.1-0.1-0.2-0.1-0.4-0.2c-0.3-0.2-0.5-0.4-0.8-0.6c-0.2-0.2-0.5-0.4-0.7-0.6
		c-0.1-0.1-0.2-0.2-0.3-0.3c0.8-1.2,1.7-2.5,2.5-3.8l0.7-1.1c0.2-0.4,0.4-0.7,0.7-1.1c0,0,0,0,0,0c0.1-0.1,0.1-0.1,0.1-0.2
		c0.2-0.3,0.3-0.6,0.5-1c0.1-0.2,0.2-0.4,0.2-0.6l0.2-0.6l0.8-2.4l0.4-1.2c0.1-0.4,0.3-0.8,0.4-1.1c0-0.1,0.1-0.2,0.1-0.2
		c0-0.1,0.1-0.1,0.1-0.1l0.1-0.1l0,0c0.1-0.1,0.2-0.1,0.3-0.2c0,0,0,0,0,0c0.1-0.1,0.3-0.3,0.5-0.4c0.2-0.1,0.3-0.3,0.5-0.6
		c0-0.1,0.1-0.1,0.1-0.2c0.1-0.2,0.1-0.4,0.1-0.6c0,0,0-0.2,0-0.3c0-0.1,0-0.1,0-0.1l0-0.1c-0.1-0.3-0.2-0.5-0.3-0.7
		c0-0.1-0.1-0.2-0.1-0.2c0.1,0,0.2-0.1,0.3-0.1c0.2-0.1,0.5-0.2,0.7-0.4c0.2-0.2,0.5-0.4,0.6-0.7c0.1-0.2,0.1-0.3,0.2-0.5
		c0-0.1,0-0.2,0-0.3c0-0.1,0-0.1,0-0.2l0-0.6c0-0.4,0-0.9-0.2-1.4c-0.1-0.3-0.2-0.5-0.3-0.8c-0.1-0.2-0.3-0.4-0.5-0.6l-0.1-0.1l0,0
		l0,0l-0.1-0.1l0,0l0,0l-0.1-0.1c-0.1-0.1-0.3-0.2-0.5-0.3c-0.3-0.1-0.6-0.1-0.8-0.2c-0.2,0-0.5,0-0.7,0c-0.2,0-0.4,0-0.5,0
		c-0.1,0-0.1,0-0.1,0c0,0,0,0,0,0c0,0,0,0,0,0c0,0,0-0.1,0-0.1l-0.1-0.2c-0.2-0.5-0.4-0.9-0.7-1.3c-0.2-0.4-0.5-0.8-0.8-1.2
		c-0.3-0.4-0.6-0.8-0.9-1.2c-0.3-0.4-0.6-0.7-1-1.1c-0.3-0.3-0.5-0.6-0.8-0.8c0.1-0.6,0.4-4,0.7-6c0.1-0.5-0.1-1-0.5-1.3
		c-0.4-0.3-1-0.3-1.4-0.1c-2.1,1.1-2.5,1.6-2.6,1.8c-0.6,0.7-1.3,1.7-3.9,1.2l0,0l-0.1,0c-0.2-0.1-0.5-0.1-0.7-0.2
		c-0.2,0-0.5-0.1-0.7-0.2c-0.5-0.1-1-0.2-1.4-0.2c-0.2,0-0.5-0.1-0.7-0.1l-0.7,0c-0.5,0-1,0-1.5,0c-0.3,0-0.7,0-1,0.1l-2.3-4.1
		c-0.1-0.2-0.3-0.4-0.6-0.4c-0.2,0-0.5,0.1-0.6,0.3c-0.1,0.1-0.1,0.1-0.2,0.2c-0.1,0.1-0.2,0.2-0.3,0.3c-0.2,0.2-0.3,0.4-0.5,0.6
		c-0.2,0.2-0.3,0.4-0.4,0.7c-0.1,0.2-0.2,0.5-0.4,0.7c-0.1,0.2-0.2,0.5-0.3,0.7c-0.1,0.2-0.2,0.5-0.3,0.7c-0.1,0.2-0.1,0.5-0.2,0.7
		c-0.1,0.2-0.1,0.5-0.2,0.7l-0.1,0.7l-0.1,0.7l0,0.4l0,0.4l0,0.7c0,0.2,0,0.5,0,0.7l0,0.1c-0.3,0.3-0.6,0.6-0.8,0.8
		c-0.3,0.4-0.6,0.7-0.9,1.1c-0.6,0.7-1.1,1.5-1.5,2.4c-0.2,0.4-0.4,0.8-0.6,1.3c-0.2,0.4-0.4,0.9-0.6,1.3c-0.2,0.4-0.3,0.9-0.5,1.3
		C25,45,25,45.2,24.9,45.5c-0.1,0.2-0.1,0.5-0.2,0.7l-0.1,0.7l-0.1,0.7c0,0.2-0.1,0.5-0.1,0.7c0,0.2-0.1,0.5-0.1,0.7l0,0.7l0,0.7
		c0,0.2,0,0.3,0,0.5c0,0,0,0,0,0C24.2,51,24.1,51,24,51.1c-0.2,0.2-0.4,0.3-0.6,0.4C23,51.8,22.5,52,22,52.2c-0.5,0.2-1,0.3-1.6,0.5
		l-0.8,0.2c-0.1,0-0.3,0.1-0.4,0.1c-0.1,0-0.2,0.1-0.3,0.1c-0.5-0.9-1.5-2.4-2.8-2.4c-0.5,0-1-0.3-1-0.6c-0.1-0.3,0.3-0.9,1.1-1.3
		c0.2-0.1,0.3-0.2,0.5-0.3c2.6-1.5,5.3-3.1,5-8.2c0-0.3-0.2-0.6-0.6-0.6c-0.3-0.1-0.6,0.1-0.8,0.4c0,0-1.7,3.1-4.6,4.2
		c-3,1.1-6.8,2.4-7.6,6.2C7.4,53.4,7.9,55.8,9.6,57.2z M57.4,45.7c0-0.1,0-0.1,0-0.2c0.1,0,0.2,0,0.3,0c0,0.2,0,0.5,0,0.8l0,0.6
		c0,0,0,0.1,0,0.1c0,0,0,0,0,0.1c0,0,0,0.1,0,0.1c0,0.1-0.1,0.1-0.2,0.2c0,0,0,0,0,0C57.4,46.8,57.4,46.2,57.4,45.7z M49.1,31.3
		c-0.5,0.7-1,1.7-1.5,2.7c-0.1-0.1-0.2-0.1-0.3-0.2l-0.6-0.3l-0.2-0.1c0.9-0.4,1.5-1,1.8-1.5C48.4,31.9,48.5,31.7,49.1,31.3z
		 M50.1,32.3c-0.2,1.1-0.3,2.3-0.4,3.2l0,0c-0.3-0.2-0.6-0.4-0.9-0.7C49.2,33.9,49.7,33,50.1,32.3z M55.6,49.8
		c-0.2,0-0.3-0.1-0.5-0.2c-0.2-0.1-0.3-0.1-0.5-0.2c-0.1,0-0.2-0.1-0.2-0.1c0,0,0,0,0,0c0.4-0.2,0.8-0.4,1.1-0.7
		c0,0.1,0.1,0.2,0.1,0.3c0.2,0.3,0.4,0.7,0.6,1c0,0,0,0-0.1,0C55.9,49.8,55.8,49.8,55.6,49.8z M22.7,71.7c0,0,0.1,0,0.1,0
		c0.5-0.1,1.1-0.1,1.5,0c0.1,0,0.4,0.1,0.6,0.3c0.1,0.1,0.3,0.1,0.4,0.2c-1.1,0.8-2.4,2.2-2.2,3.3c0.1,0.5,0,0.8-0.1,0.9
		c0,0,0,0-0.1,0c-0.5-0.1-0.5-0.1-0.9-1.9C21.7,73,22.4,72,22.7,71.7z M13.8,73.5l0.1-0.4l0.1-0.5c0.3-1.2,0.3-2.5,0.2-3.6
		c-0.1-1.2-0.2-2.3-0.3-3.4c0-0.5-0.1-1.1,0-1.6c0-0.5,0.1-1.1,0.2-1.6c0.2-1.1,0.5-2.1,1-3.2c0.4-1,1-2,1.6-2.8
		c0.7-0.8,1.5-1.5,2.4-1.9l0.3-0.1c0.1,0,0.3-0.1,0.4-0.1l0.8-0.2c0.5-0.1,1.1-0.3,1.6-0.5l-0.1,2.2c0,0.2,0.1,0.4,0.3,0.4
		c0.2,0,0.3-0.1,0.3-0.3l0.8-2.9c0,0,0,0,0,0c0.1-0.1,0.2-0.1,0.4-0.2c0.1,0,0.1-0.1,0.2-0.1c0,0.2,0,0.4,0.1,0.6l0.1,0.7l0.2,0.7
		c0.1,0.5,0.3,0.9,0.4,1.3c0.2,0.4,0.4,0.9,0.6,1.3c0.1,0.2,0.3,0.2,0.5,0.1c0.1-0.1,0.2-0.2,0.2-0.3l0,0c0-0.5-0.1-0.9-0.1-1.3
		c-0.1-0.4-0.1-0.9-0.2-1.3C26.1,53.9,26,53.4,26,53c-0.1-0.4-0.1-0.9-0.1-1.3c-0.1-1.7,0.1-3.5,0.5-5.2c0.1-0.4,0.2-0.8,0.3-1.3
		c0.1-0.4,0.3-0.8,0.4-1.2c0.2-0.4,0.3-0.8,0.5-1.2c0.2-0.4,0.4-0.8,0.6-1.2c0.4-0.8,0.9-1.5,1.4-2.2c0.2-0.3,0.4-0.6,0.7-0.9l0,0.1
		l0,0l0,0c0,0.4,0.4,0.7,0.8,0.6c0.4,0,0.7-0.4,0.6-0.8l0,0l0,0l0,0l-0.2-1.4l0-0.7c0-0.2,0-0.5,0-0.7l0-0.7l0-0.3l0-0.3l0.1-0.7
		l0.1-0.7c0-0.2,0.1-0.4,0.1-0.7c0.1-0.2,0.1-0.4,0.2-0.6c0.1-0.2,0.1-0.4,0.2-0.6c0.1-0.2,0.2-0.4,0.3-0.6c0.1-0.1,0.1-0.3,0.2-0.4
		l-0.3,5c0,0.3,0.2,0.5,0.5,0.6c0.3,0,0.5-0.2,0.6-0.5l0.6-5.1l1.5,2.7c0.1,0.2,0.4,0.4,0.6,0.4l0,0c0.5,0,0.9-0.1,1.4-0.1
		c0.5,0,0.9,0,1.4,0l0.7,0c0.2,0,0.4,0,0.7,0.1c0.5,0,0.9,0.1,1.3,0.2c0.2,0,0.4,0.1,0.7,0.1c0.2,0,0.4,0.1,0.7,0.2l0.6,0.2l0.6,0.2
		c0.2,0.1,0.4,0.2,0.6,0.2c0.2,0.1,0.4,0.2,0.6,0.3l0.6,0.3l0.6,0.3c0.2,0.1,0.4,0.2,0.6,0.3c0.2,0.1,0.4,0.2,0.6,0.4
		c0.4,0.2,0.7,0.5,1.1,0.8l0.5,0.4l0.5,0.4c0.3,0.3,0.7,0.6,1,1c0.3,0.3,0.6,0.7,0.9,1c0.3,0.4,0.6,0.7,0.8,1.1
		c0.3,0.4,0.5,0.8,0.7,1.1c0.2,0.3,0.3,0.6,0.5,0.8c-0.4,0-0.9,0-1.4,0c-0.1,0-0.3,0-0.4,0l-0.1,0l-0.1,0c-0.1,0-0.1,0-0.2-0.1
		c-0.3-0.1-0.6-0.1-0.8-0.1c-0.2,0-0.5,0-0.6,0c-0.1,0-0.2,0-0.2,0c-0.1,0-0.1,0-0.1,0c-0.2,0.1-0.3,0.2-0.2,0.4
		c0,0.1,0.1,0.2,0.2,0.2l0.3,0.1c0,0,0,0,0.1,0c0.1,0,0.2,0,0.4,0.1c0.2,0,0.4,0.1,0.7,0.2c0.1,0,0.1,0,0.2,0.1l0.1,0l0.1,0.1
		c0.2,0.1,0.3,0.1,0.5,0.1c0.6,0.1,1.2,0.2,1.7,0.2c0.2,0,0.4,0,0.6,0c0.1,0.9,0.9,1.4,1.6,1.6c-0.2,0.7-0.9,2.4-3.1,2.9
		c0,0,0,0-0.1,0c-0.1,0-0.2,0-0.2,0c-0.2,0-0.3-0.1-0.5-0.1c-0.2,0-0.3-0.1-0.5-0.2c-0.2-0.1-0.3-0.1-0.4-0.2
		c-0.1-0.1-0.3-0.2-0.4-0.3c-0.1-0.1-0.3-0.2-0.4-0.3c-0.1-0.1-0.3-0.2-0.4-0.3c-0.1-0.1-0.2-0.2-0.4-0.4l0,0
		c-0.2-0.1-0.4-0.1-0.5,0c-0.1,0.1-0.1,0.3,0,0.5c0.1,0.2,0.2,0.3,0.3,0.5c0.1,0.1,0.2,0.3,0.4,0.4c0.1,0.1,0.3,0.3,0.4,0.4
		c0.1,0.1,0.3,0.3,0.5,0.4c0.2,0.1,0.3,0.2,0.5,0.3c0.2,0.1,0.4,0.2,0.5,0.3c0.2,0.1,0.4,0.2,0.6,0.2c0.1,0,0.2,0.1,0.3,0.1
		c0,0,0,0,0,0.1c0.1,0.1,0.2,0.2,0.3,0.3c0.1,0.1,0.2,0.2,0.3,0.2c0.1,0.1,0.2,0.1,0.3,0.2c0.1,0.1,0.2,0.1,0.3,0.2
		c0.1,0,0.2,0.1,0.3,0.1c0.2,0.1,0.4,0.2,0.6,0.2c0.2,0.1,0.4,0.1,0.6,0.2c0.1,0,0.3,0.1,0.4,0.1c-0.1,0-0.2,0-0.3,0
		c-0.4,0.1-0.9,0.1-1.5,0.1c-0.3,0-0.5,0-0.8-0.1c-0.3,0-0.5-0.1-0.7-0.1c-0.2,0-0.4-0.1-0.5-0.1c-0.1,0-0.2,0-0.2,0l0,0
		c-0.2-0.1-0.4,0.1-0.5,0.3c0,0.2,0.1,0.4,0.3,0.5c0,0,0.1,0,0.2,0.1c0.1,0,0.3,0.1,0.5,0.2c0.2,0.1,0.5,0.1,0.7,0.2
		c0.3,0.1,0.6,0.1,0.9,0.2c0.4,0.1,0.7,0.1,1,0.1c-0.2,0.4-0.3,0.7-0.4,1l-0.4,1.2l-0.8,2.4l-0.2,0.6c-0.1,0.2-0.1,0.4-0.2,0.6
		c-0.1,0.3-0.3,0.6-0.4,0.8l-4.4,3.5c-0.2,0.2-0.3,0.5-0.1,0.7c0.2,0.2,0.5,0.2,0.7,0.1l2.1-1.4c-0.8,1.2-1.6,2.4-2.4,3.6l0,0
		c-0.2,0.3-0.1,0.6,0.1,0.9c0.3,0.3,0.5,0.5,0.8,0.7c0.3,0.2,0.5,0.5,0.8,0.7c0.3,0.2,0.6,0.4,0.9,0.7c0.2,0.1,0.3,0.2,0.5,0.3
		c0.1,0.1,0.2,0.1,0.3,0.1c0.1,0,0.1,0,0.2,0.1l0.2,0.1c0.1,0,0.1,0,0.2,0.1l0.1,0l0.1,0l0.1,0l0,0l0.1,0c0.1,0,0.3,0,0.4,0.1
		c0.3,0,0.4,0.1,0.5,0.2c0,0,0.1,0.1,0.1,0.2c0,0,0,0.1,0,0.1c0,0,0,0.2,0,0.2c0,0.1,0,0.1,0,0.1c0,0,0,0-0.1,0.1
		c-0.2,0.1-0.5,0.1-0.8,0.1c-0.3,0-0.6,0-1,0l-1,0c-0.1,0-0.2,0-0.2,0c-0.1,0-0.1,0-0.2,0c-0.1,0-0.3-0.1-0.4-0.1
		c-0.3-0.1-0.5-0.2-0.8-0.4c-0.3-0.2-0.5-0.3-0.7-0.5c-0.2-0.2-0.5-0.4-0.7-0.6c-0.2-0.2-0.4-0.5-0.6-0.7l0,0
		c-0.2-0.3-0.6-0.3-0.9-0.2l-2.8,1.4l-1.4,0.7L41.4,70c-0.1,0-0.2,0.1-0.3,0.1c-0.1,0-0.2,0.1-0.3,0.1c-0.1,0-0.2,0.1-0.3,0.1
		c-0.2,0-0.5,0.1-0.7,0.1c-0.2,0-0.5,0.1-0.7,0.1c-0.5,0-1,0.1-1.5,0.1c-0.5,0-1,0-1.5-0.1c-0.3,0-0.5,0-0.8-0.1c0,0-0.1,0-0.1,0
		c0,0,0,0,0,0c0-0.1,0-0.3,0-0.4C35,69.4,35,68.8,35,68.4c0-0.5,0-0.8,0-0.8c0-0.3-0.2-0.5-0.5-0.5c-0.2,0-0.4,0.1-0.5,0.3
		c0,0-0.1,0.3-0.2,0.8c-0.1,0.5-0.2,1.1-0.2,1.8c0,0.2,0,0.3,0,0.5c0,0.2,0,0.3,0.1,0.5c0,0.2,0,0.3,0,0.4c0,0.1,0,0.1,0,0.2l0,0
		c0,0,0,0.1,0,0.1c0,0,0,0,0,0.1c0,0,0,0,0,0c0,0,0,0.1,0,0.1c0,0.2,0.1,0.3,0.1,0.4c0,0.1,0,0.2,0,0.2c0,0.1,0.1,0.2,0.1,0.3
		c0,0.2,0.1,0.3,0.2,0.5c0.1,0.2,0.1,0.4,0.2,0.5l0.3,0.5c0.1,0.2,0.2,0.3,0.3,0.5c0.1,0.2,0.2,0.3,0.3,0.5c0.2,0.3,0.4,0.6,0.6,0.9
		c0.2,0.3,0.4,0.6,0.7,0.9c0.2,0.3,0.5,0.6,0.7,0.8c0.1,0.1,0.1,0.1,0.2,0.2c-0.2,0.1-0.4,0.2-0.5,0.3c-0.2,0.1-0.4,0.1-0.6,0.1
		c-0.1,0-0.2,0-0.3,0c-0.1,0-0.2,0-0.3,0c-0.1,0-0.2,0-0.3-0.1c-0.1,0-0.2-0.1-0.3-0.1c-0.2-0.1-0.4-0.2-0.6-0.3
		c-0.2-0.1-0.4-0.3-0.6-0.4c-0.2-0.2-0.4-0.3-0.5-0.5c-0.7-0.7-1.3-1.5-1.9-2.4c-0.2-0.4-0.5-0.8-0.7-1.2c0-0.1,0-0.1-0.1-0.2l0,0
		c0,0,0,0-0.1-0.1c0,0,0-0.1-0.1-0.1c-0.1-0.2-0.2-0.3-0.2-0.5c-0.1-0.2-0.2-0.4-0.2-0.5l0,0c0,0,0-0.1,0-0.1c0-0.1,0-0.2,0-0.3
		c0-0.1,0-0.2,0-0.3c0-0.2,0-0.4-0.1-0.6c0-0.3-0.1-0.6-0.1-0.6l0,0c-0.1-0.3-0.4-0.5-0.7-0.5c-0.2,0-0.4,0.2-0.5,0.4
		c0,0-0.1,0.2-0.1,0.6c0,0.2,0,0.4-0.1,0.6c0,0.1,0,0.1,0,0.2c-0.3,0-0.6,0-0.9,0c-0.5-0.1-0.9-0.2-1.4-0.4
		c-0.2-0.1-0.5-0.3-0.7-0.4c-0.3-0.1-0.6-0.3-1-0.4l-0.1,0l-0.1,0l0,0l-0.1,0l0,0l-0.3,0c-0.2,0-0.3,0-0.5,0c-0.2,0-0.4,0-0.7,0
		c0.1-0.1,0.2-0.3,0.3-0.4c0.1-0.1,0.2-0.2,0.2-0.3c0.1-0.1,0.1-0.2,0.2-0.3c0.1-0.2,0.1-0.3,0.1-0.3c0.1-0.2,0-0.5-0.2-0.6
		c-0.2-0.1-0.4,0-0.5,0.2l0,0.1c0,0,0,0.1-0.1,0.2c0,0.1-0.1,0.1-0.1,0.2c-0.1,0.1-0.1,0.1-0.2,0.2c-0.2,0.2-0.4,0.3-0.6,0.5
		c-0.2,0.2-0.5,0.3-0.8,0.5c-0.6,0.3-1.2,0.6-1.7,0.8c-0.2,0.1-0.4,0.2-0.6,0.2c-0.1,0-0.2,0.1-0.2,0.1l0,0c-0.1,0-0.2,0.1-0.2,0.1
		c0,0-0.1,0-0.1,0c-0.1,0.1-0.3,0.1-0.4,0.2c-0.2,0.1-0.3,0.1-0.4,0.2c-0.6,0.3-1.1,0.7-1.5,1.1c-0.5,0.5-0.8,1-1.1,1.6
		c-0.1,0.3-0.3,0.6-0.4,0.9c0,0.2-0.1,0.3-0.1,0.5c0,0.2,0,0.3,0,0.5c0,0.5-0.1,1-0.3,1.3c-0.1,0.1-0.2,0.2-0.3,0.2
		c-0.1,0-0.1,0-0.2,0c0,0-0.1,0-0.1,0c0,0-0.1,0-0.2,0c-0.2,0-0.3-0.1-0.3-0.1c-0.1-0.1-0.1-0.2-0.1-0.4c0-0.4,0.1-1,0.2-1.5
		c0.1-0.5,0.3-1.1,0.5-1.6L13.8,73.5z M9.4,50.6c0.6-2.8,3.1-3.9,6.7-5.2c1.7-0.6,3.1-1.8,4-2.8c-0.5,2.5-2.2,3.5-4.2,4.6
		c-0.2,0.1-0.3,0.2-0.5,0.3c-1.9,1.1-1.9,2.3-1.7,2.9c0.3,1.1,1.5,1.7,2.4,1.7c0.5,0,1.1,0.8,1.6,1.6c-0.7,0.5-1.4,1.1-1.9,1.7
		c-0.5,0.7-1,1.4-1.4,2.2c-1.6-0.1-2.9-0.6-3.9-1.4C9.2,55.1,8.9,53.2,9.4,50.6z"/>
</g>
<g id="XMLID_1_">
	<path id="XMLID_5_" class="st2" d="M76.7,27.8c0-0.6,0.5-1.2,1.2-1.2h0.2c0.6,0,0.9,0.3,1.2,0.7l4.4,5.8v-5.4
		c0-0.6,0.5-1.1,1.1-1.1s1.1,0.5,1.1,1.1v8.3c0,0.6-0.5,1.2-1.2,1.2h-0.1c-0.6,0-0.9-0.3-1.2-0.7l-4.6-6v5.6c0,0.6-0.5,1.1-1.1,1.1
		c-0.6,0-1.1-0.5-1.1-1.1V27.8z"/>
	<path id="XMLID_31_" class="st2" d="M88.5,36v-8.2c0-0.6,0.5-1.2,1.2-1.2h5.8c0.6,0,1,0.5,1,1c0,0.6-0.5,1-1,1h-4.7v2.1h4
		c0.6,0,1,0.5,1,1s-0.5,1-1,1h-4v2.2h4.7c0.6,0,1,0.5,1,1c0,0.6-0.5,1-1,1h-5.9C89,37.1,88.5,36.6,88.5,36z"/>
	<path id="XMLID_37_" class="st2" d="M97.8,28.2c0-0.1-0.1-0.3-0.1-0.4c0-0.6,0.5-1.1,1.2-1.1c0.5,0,1,0.3,1.1,0.8l2.1,6.4l2.1-6.4
		c0.2-0.5,0.6-0.9,1.2-0.9h0.2c0.6,0,1,0.4,1.2,0.9l2.1,6.4l2.1-6.4c0.1-0.4,0.5-0.8,1.1-0.8c0.6,0,1.1,0.5,1.1,1.1
		c0,0.1,0,0.3-0.1,0.4l-2.9,8.2c-0.2,0.6-0.6,0.9-1.2,0.9h-0.2c-0.6,0-1-0.3-1.2-0.9l-2.1-6l-2.1,6c-0.2,0.6-0.6,0.9-1.2,0.9H102
		c-0.6,0-1-0.4-1.2-0.9L97.8,28.2z"/>
	<path id="XMLID_76_" class="st2" d="M114.6,36c-0.3-0.2-0.4-0.5-0.4-0.9c0-0.6,0.5-1.1,1.1-1.1c0.3,0,0.5,0.1,0.7,0.2
		c0.8,0.6,1.7,0.9,2.7,0.9c0.9,0,1.5-0.4,1.5-1v0c0-0.6-0.4-0.9-2.1-1.3c-2.1-0.5-3.5-1.1-3.5-3.2v0c0-1.9,1.5-3.2,3.7-3.2
		c1.3,0,2.4,0.3,3.3,0.9c0.3,0.1,0.5,0.5,0.5,0.9c0,0.6-0.5,1.1-1.1,1.1c-0.2,0-0.4-0.1-0.6-0.2c-0.8-0.4-1.5-0.7-2.2-0.7
		c-0.9,0-1.3,0.4-1.3,0.9v0c0,0.7,0.4,0.9,2.3,1.4c2.1,0.6,3.3,1.3,3.3,3.1v0c0,2.1-1.6,3.2-3.8,3.2C117.1,37.3,115.7,36.9,114.6,36
		z"/>
</g>
</svg>
